<svg width="21" height="18" viewBox="0 0 21 18" fill="none" xmlns="http://www.w3.org/2000/svg">
<path d="M0 7.49932C0 3.35756 3.52455 0 7.87231 0C12.2201 0 15.7446 3.35756 15.7446 7.49932C15.7446 11.6411 12.2201 14.9986 7.87231 14.9986C6.71799 14.9986 5.6199 14.7615 4.63042 14.335C3.30967 14.6254 1.88751 14.8751 1.23327 14.9861C0.511536 15.1085 -0.117102 14.505 0.0228173 13.8161C0.146468 13.2073 0.421154 11.899 0.738279 10.6739C0.26444 9.70907 0 8.6327 0 7.49932ZM6.449 3.30693C5.98553 3.54279 5.62003 3.90976 5.34327 4.39604C5.13605 4.76015 5.27791 5.21535 5.66012 5.41275C6.04234 5.61015 6.52017 5.47502 6.7274 5.11091C6.88099 4.84103 7.04031 4.70648 7.19088 4.62985C7.34933 4.54921 7.56234 4.50034 7.87225 4.50033C8.10693 4.50031 8.38363 4.57943 8.5869 4.7381C8.76588 4.87781 8.92185 5.1025 8.92185 5.4995C8.92185 5.69433 8.84303 5.78417 8.30423 6.1875C7.83153 6.54136 7.08497 7.1154 7.08497 8.24926C7.08497 8.66343 7.43743 8.99919 7.8722 8.99919C8.30698 8.99919 8.65944 8.66343 8.65944 8.24926C8.65944 7.87879 8.83132 7.70048 9.27705 7.36681C9.30441 7.34633 9.33422 7.32451 9.36587 7.30135C9.77342 7.00308 10.4963 6.47401 10.4963 5.4995C10.4963 4.65144 10.1275 4.00156 9.58481 3.57797C9.06644 3.17334 8.42472 3.00043 7.87216 3.00046C7.39484 3.00049 6.90459 3.07507 6.449 3.30693ZM8.9221 10.9991C8.9221 10.4468 8.45213 9.9991 7.87239 9.9991C7.29264 9.9991 6.82267 10.4468 6.82267 10.9991C6.82267 11.5514 7.29264 11.9991 7.87239 11.9991C8.45213 11.9991 8.9221 11.5514 8.9221 10.9991ZM7.76776 15.998C9.17239 17.2394 11.0534 17.9984 13.1206 17.9984C14.2749 17.9984 15.373 17.7613 16.3625 17.3348C17.6849 17.6252 19.1141 17.874 19.7715 17.9844C20.4951 18.1059 21.1232 17.4986 20.9793 16.809C20.8523 16.2005 20.5719 14.8958 20.2547 13.6736C20.7285 12.7088 20.9929 11.6324 20.9929 10.4991C20.9929 7.21647 18.7789 4.42645 15.6958 3.41021C16.3961 4.62341 16.7944 6.01708 16.7944 7.49937C16.7944 12.1934 12.7999 15.9986 7.87244 15.9986C7.8375 15.9986 7.80261 15.9984 7.76776 15.998Z" fill="#363853"/>
</svg>
