<svg width="25" height="24" viewBox="0 0 25 24" fill="none" xmlns="http://www.w3.org/2000/svg">
<path d="M21.7299 8.01002L15.1799 2.77002C13.8999 1.75002 11.8999 1.74002 10.6299 2.76002L4.07987 8.01002C3.13987 8.76002 2.56987 10.26 2.76987 11.44L4.02987 18.98C4.31987 20.67 5.88986 22 7.59986 22H18.1999C19.8899 22 21.4899 20.64 21.7799 18.97L23.0399 11.43C23.2199 10.26 22.6499 8.76002 21.7299 8.01002Z" fill="#C1C1CE"/>
<path d="M12.8999 18.75C12.4899 18.75 12.1499 18.41 12.1499 18V15C12.1499 14.59 12.4899 14.25 12.8999 14.25C13.3099 14.25 13.6499 14.59 13.6499 15V18C13.6499 18.41 13.3099 18.75 12.8999 18.75Z" fill="white"/>
</svg>
