<svg width="24" height="24" viewBox="0 0 24 24" fill="none" xmlns="http://www.w3.org/2000/svg">
<path d="M15 6.14966H6C3.79 6.14966 2 7.93966 2 10.1497V6.53961C2 4.49961 3.65 2.84961 5.69 2.84961H11.31C13.35 2.84961 15 4.10966 15 6.14966Z" fill="#C1C1CE"/>
<path d="M19.07 15.8004H19.9V17.1504C19.9 19.3052 18.1548 21.0504 16 21.0504H6C3.84523 21.0504 2.1 19.3052 2.1 17.1504V10.1504C2.1 7.99562 3.84523 6.25039 6 6.25039H16C18.1448 6.25039 19.9 8.00562 19.9 10.1504V11.5003H18.92C18.3336 11.5003 17.798 11.7308 17.4092 12.1298C16.8853 12.6437 16.6337 13.42 16.8434 14.2061L16.8434 14.2063C17.1072 15.1877 18.0732 15.8004 19.07 15.8004Z" fill="#C1C1CE" stroke="white" stroke-width="0.2"/>
<path d="M22 12.6196V14.6796C22 15.2396 21.5399 15.6996 20.9699 15.6996H19.0399C17.9599 15.6996 16.97 14.9097 16.88 13.8297C16.82 13.1997 17.0599 12.6096 17.4799 12.1996C17.85 11.8196 18.36 11.5996 18.92 11.5996H20.9699C21.5399 11.5996 22 12.0596 22 12.6196Z" fill="#C1C1CE"/>
<path d="M13 11.9004H7C6.59 11.9004 6.25 11.5604 6.25 11.1504C6.25 10.7404 6.59 10.4004 7 10.4004H13C13.41 10.4004 13.75 10.7404 13.75 11.1504C13.75 11.5604 13.41 11.9004 13 11.9004Z" fill="white"/>
</svg>
